<?xml version="1.0" standalone="no"?>
<!DOCTYPE svg PUBLIC "-//W3C//DTD SVG 20010904//EN"
 "http://www.w3.org/TR/2001/REC-SVG-20010904/DTD/svg10.dtd">
<svg version="1.0" xmlns="http://www.w3.org/2000/svg"
 width="4500.000000pt" height="4501.000000pt" viewBox="0 0 4500.000000 4501.000000"
 preserveAspectRatio="xMidYMid meet">

<g transform="translate(0.000000,4501.000000) scale(0.100000,-0.100000)"
fill="#000000" stroke="none">
<path d="M15865 38950 c-676 -55 -1238 -193 -1690 -415 -566 -278 -890 -651
-996 -1143 -30 -140 -37 -383 -15 -530 39 -266 131 -470 286 -635 205 -220
480 -332 840 -344 232 -7 403 24 587 107 141 64 297 189 399 322 113 146 194
359 217 575 l5 41 -82 53 c-44 29 -117 89 -162 133 -171 173 -244 366 -244
648 0 564 389 993 985 1084 153 24 408 14 540 -20 410 -107 684 -423 780 -899
89 -444 38 -963 -140 -1423 -231 -597 -690 -1154 -1368 -1660 -84 -63 -270
-191 -415 -286 -1080 -710 -1251 -836 -1569 -1155 -116 -116 -153 -159 -153
-178 0 -14 3 -25 7 -25 3 0 49 42 102 93 203 197 470 366 796 505 373 159 720
257 1550 442 226 50 491 111 590 136 933 234 1662 555 2195 968 121 93 371
338 453 442 296 378 445 822 423 1264 -21 430 -167 769 -457 1059 -472 471
-1255 739 -2429 831 -180 14 -897 21 -1035 10z"/>
<path d="M19581 33404 c-130 -394 -434 -777 -773 -975 -292 -170 -576 -206
-1023 -128 -360 62 -673 169 -1424 486 -713 300 -1031 409 -1336 457 -238 37
-626 40 -783 6 -272 -60 -499 -209 -625 -412 -187 -299 -161 -657 73 -1002
152 -226 327 -416 736 -803 284 -268 473 -463 586 -603 60 -73 279 -381 358
-500 85 -130 144 -250 200 -410 26 -74 66 -178 87 -230 87 -207 136 -439 163
-770 14 -181 71 -1758 105 -2915 40 -1389 54 -2190 61 -3480 10 -1743 -6
-2076 -118 -2424 -111 -347 -314 -595 -644 -785 -217 -126 -529 -238 -1019
-366 -514 -134 -1156 -327 -1481 -445 -113 -41 -185 -91 -243 -168 -50 -66
-71 -115 -71 -166 0 -53 60 -128 155 -193 82 -55 144 -80 275 -110 l95 -22
3340 -4 c1837 -3 3392 -4 3455 -4 236 0 389 72 461 217 74 151 35 333 -91 420
-79 55 -744 260 -1430 441 -549 145 -733 206 -978 325 -573 276 -824 651 -907
1359 -49 416 -56 3230 -15 5620 29 1661 35 1854 66 2100 64 508 196 954 405
1372 234 470 532 859 955 1250 196 180 399 386 603 613 171 189 246 282 316
390 192 295 369 821 504 1505 27 135 80 434 77 437 -1 1 -20 5 -42 9 l-41 6
-32 -98z"/>
<path d="M18633 25901 l-993 -246 0 -692 0 -693 -297 -2 -298 -3 -3 -97 -3
-98 301 0 300 0 0 -1798 c0 -1528 2 -1816 15 -1924 83 -712 426 -1104 1095
-1252 219 -48 350 -60 680 -60 245 -1 329 3 424 17 388 59 679 193 899 414
249 250 393 578 466 1056 13 85 15 120 7 122 -20 7 -169 25 -173 22 -2 -3 -10
-46 -19 -98 -96 -600 -367 -996 -743 -1086 -101 -24 -262 -21 -333 6 -147 57
-240 206 -282 452 -32 190 -36 421 -36 2277 l0 1852 700 0 700 0 0 100 0 100
-700 0 -700 0 0 940 c0 517 -3 939 -7 939 -5 -1 -455 -112 -1000 -248z"/>
<path d="M25135 24354 c-479 -74 -864 -356 -1076 -789 -32 -66 -72 -160 -88
-210 l-30 -90 -3 500 -3 500 -1297 3 -1298 2 0 -100 0 -100 295 0 295 0 0
-2370 0 -2370 -295 0 -295 0 0 -95 0 -95 1680 0 1680 0 0 95 0 95 -380 0 -380
0 0 1523 c0 1623 1 1646 50 1898 101 521 354 955 656 1125 110 62 167 77 289
78 163 1 243 -34 290 -127 41 -82 34 -173 -26 -328 l-30 -79 -197 -2 -197 -3
-17 -65 c-62 -225 -66 -476 -12 -645 53 -162 181 -316 329 -392 270 -139 644
-159 917 -49 282 114 466 381 517 751 16 111 13 331 -5 453 -86 581 -492 905
-1127 901 -84 -1 -192 -7 -242 -15z"/>
<path d="M28700 24360 c-629 -48 -1084 -185 -1382 -415 -282 -218 -419 -509
-420 -895 -1 -532 248 -828 747 -889 469 -57 872 123 1041 464 69 141 79 191
78 400 0 186 -7 231 -56 388 l-21 67 -137 0 -138 0 -21 78 c-36 133 -45 224
-32 305 23 136 100 237 225 296 91 43 158 56 281 55 147 -1 206 -23 290 -108
94 -95 144 -217 184 -446 49 -282 61 -542 61 -1336 l0 -651 -432 -6 c-238 -3
-494 -11 -568 -17 -604 -48 -1023 -157 -1305 -340 -111 -72 -267 -233 -324
-334 -55 -97 -104 -226 -126 -330 -55 -268 -28 -623 64 -861 198 -513 746
-775 1571 -752 107 3 236 12 285 21 444 76 694 278 856 691 21 55 29 66 34 50
58 -176 113 -272 212 -375 188 -198 443 -309 838 -367 177 -25 647 -25 800 0
466 79 722 293 868 727 74 219 137 606 137 841 l0 66 -46 7 c-63 8 -114 8
-114 -1 -1 -37 -23 -271 -35 -363 -73 -550 -217 -780 -460 -730 -107 22 -178
107 -219 259 -19 74 -20 113 -26 1466 -6 1237 -8 1405 -24 1525 -73 570 -238
917 -547 1150 -245 184 -570 290 -1061 346 -167 19 -889 28 -1078 14z m700
-3450 c0 -344 -4 -620 -11 -678 -39 -361 -170 -643 -341 -738 -44 -24 -64 -29
-118 -28 -221 4 -266 174 -257 954 5 415 11 484 62 635 66 197 188 337 344
396 79 29 123 37 229 38 l92 1 0 -580z"/>
<path d="M21647 18415 c-367 -70 -639 -284 -765 -605 -108 -273 -119 -598 -36
-1008 l7 -34 -69 35 c-246 123 -491 190 -804 218 -159 14 -653 6 -810 -15
-749 -95 -1261 -361 -1562 -810 -186 -278 -270 -584 -270 -976 0 -834 362
-1338 1143 -1594 l97 -32 -106 -64 c-183 -111 -484 -314 -593 -401 -310 -246
-462 -477 -509 -771 -18 -112 -8 -332 19 -426 116 -399 512 -658 1121 -732 52
-6 106 -14 120 -16 14 -3 432 -9 930 -14 564 -5 943 -12 1005 -19 511 -59 718
-174 802 -446 26 -88 26 -388 -1 -495 -106 -413 -459 -701 -1011 -825 -427
-96 -1002 -95 -1374 1 -363 94 -588 287 -672 576 -16 56 -22 111 -26 240 -6
186 4 298 44 478 14 63 26 124 27 134 1 15 -57 45 -319 163 l-320 145 -100
-32 c-208 -67 -374 -160 -499 -279 -165 -157 -250 -380 -232 -606 38 -481 431
-800 1194 -969 560 -125 1480 -168 2146 -100 1236 125 2001 594 2260 1387 154
467 123 1066 -75 1458 -267 531 -805 819 -1709 915 -125 13 -336 18 -1105 24
-997 8 -1055 11 -1163 55 -135 55 -101 176 92 335 119 96 296 210 320 205 135
-30 410 -62 650 -77 469 -27 953 40 1311 182 707 281 1085 853 1085 1643 0
384 -96 672 -314 943 -106 132 -307 311 -467 415 -36 23 -37 25 -58 146 -94
536 -57 918 107 1104 129 146 400 170 509 46 41 -47 55 -96 51 -181 l-3 -70
-147 -90 c-147 -89 -148 -90 -148 -126 0 -110 67 -257 160 -350 73 -73 149
-117 260 -151 97 -31 298 -33 400 -5 232 63 393 227 457 466 28 103 25 359 -5
464 -37 127 -95 229 -182 315 -108 109 -214 166 -388 212 -104 28 -362 35
-475 14z m-1854 -1601 c184 -63 273 -313 307 -864 13 -213 13 -1261 0 -1450
-28 -394 -89 -631 -193 -746 -73 -81 -203 -117 -343 -96 -260 41 -375 272
-415 837 -16 238 -6 1430 14 1591 58 462 158 669 350 730 61 18 223 18 280 -2z"/>
<path d="M32131 17023 c-26 -57 -102 -180 -137 -221 -19 -23 -57 -54 -82 -70
-43 -25 -55 -27 -152 -27 l-105 0 -170 74 c-292 127 -465 182 -700 222 -154
27 -474 36 -641 20 -668 -67 -1179 -389 -1448 -911 -139 -270 -206 -563 -206
-900 1 -469 142 -826 439 -1113 168 -161 351 -279 601 -390 242 -107 451 -174
1045 -337 689 -189 920 -306 1030 -520 31 -60 45 -131 45 -230 0 -361 -227
-576 -700 -662 -158 -29 -587 -32 -755 -5 -387 62 -666 199 -920 452 -253 252
-449 599 -611 1080 l-43 130 -66 3 -65 3 0 -966 0 -965 64 0 64 0 66 100 c128
192 257 290 384 293 55 2 69 -3 198 -69 331 -170 599 -257 939 -306 141 -20
639 -17 790 5 363 54 654 158 895 319 115 77 280 233 365 347 167 221 278 511
319 829 21 159 21 479 1 621 -96 675 -488 1106 -1259 1385 -165 60 -332 109
-729 216 -530 142 -731 214 -897 325 -188 125 -272 298 -243 500 52 362 441
561 1057 542 437 -13 758 -148 1051 -442 216 -215 368 -451 521 -803 l64 -147
65 -3 65 -3 0 826 0 825 -63 0 c-60 0 -65 -2 -76 -27z"/>
<path d="M24970 17024 c-19 -2 -87 -9 -150 -15 -515 -49 -1011 -221 -1362
-472 -557 -399 -864 -974 -960 -1802 -19 -168 -16 -665 6 -845 78 -649 293
-1137 662 -1506 365 -364 842 -575 1514 -666 146 -20 208 -22 530 -23 382 0
496 9 768 56 457 79 865 257 1163 505 457 381 726 993 789 1793 13 174 13 594
-1 758 -62 751 -309 1308 -744 1671 -342 287 -790 457 -1385 528 -127 15 -739
28 -830 18z m483 -237 c238 -118 347 -404 399 -1042 18 -226 19 -2610 0 -2840
-29 -372 -69 -572 -146 -730 -98 -201 -239 -285 -476 -285 -170 0 -282 42
-379 140 -167 169 -245 446 -283 1010 -18 266 -18 2343 0 2600 33 460 89 730
188 908 49 88 141 182 215 222 96 51 139 60 280 57 124 -3 128 -3 202 -40z"/>
<path d="M15802 13560 c-104 -21 -182 -105 -182 -196 0 -33 -12 -45 -25 -24
-9 15 -25 1 -86 -77 -42 -51 -49 -66 -39 -78 10 -12 15 -12 36 1 34 23 46 15
299 -190 255 -206 275 -225 275 -266 0 -34 15 -38 60 -15 34 18 70 61 70 86 0
23 -41 70 -111 129 l-57 47 39 12 c51 15 102 61 128 115 25 51 28 144 6 205
-57 162 -256 282 -413 251z m54 -105 c62 -18 180 -100 223 -153 77 -98 88
-178 30 -226 -52 -44 -130 -30 -236 42 -101 69 -193 184 -193 242 0 36 30 81
63 95 41 18 53 18 113 0z"/>
<path d="M15270 12895 c-35 -60 -60 -111 -56 -120 7 -19 20 -19 36 0 7 8 22
15 33 15 11 0 111 -53 222 -119 220 -130 262 -148 294 -131 29 15 51 62 51
109 l0 41 -45 -6 c-42 -6 -51 -3 -234 105 -104 62 -195 119 -201 127 -7 8 -10
27 -7 43 5 26 -5 41 -28 41 -1 0 -31 -47 -65 -105z"/>
<path d="M15940 12563 c-51 -19 -68 -85 -30 -123 45 -45 123 -13 123 51 0 46
-52 86 -93 72z"/>
<path d="M15134 12541 c-107 -49 -196 -235 -165 -349 14 -55 42 -89 90 -109
59 -25 112 -4 236 92 109 84 144 105 183 105 48 0 72 -29 72 -87 0 -90 -66
-156 -150 -151 -42 3 -45 1 -48 -23 -4 -37 32 -79 70 -79 63 0 126 60 176 168
84 181 -41 362 -196 283 -21 -11 -69 -43 -107 -73 -114 -88 -148 -108 -182
-108 -67 0 -96 93 -50 160 38 56 72 75 135 75 45 0 57 4 60 17 5 26 -26 78
-54 88 -30 12 -21 13 -70 -9z"/>
<path d="M14806 11798 c-16 -62 -31 -119 -34 -125 -8 -24 31 -28 46 -5 22 33
60 29 295 -33 115 -30 211 -55 212 -55 2 0 -2 -18 -7 -41 -12 -44 -7 -53 34
-63 26 -6 28 -4 39 39 13 50 14 50 109 16 63 -23 59 -45 -9 -51 -60 -6 -81
-25 -81 -75 0 -62 82 -93 131 -49 33 29 69 113 69 162 0 85 -37 136 -117 156
l-48 13 3 40 c3 38 1 41 -29 47 -34 7 -49 -4 -49 -36 0 -9 -4 -19 -8 -22 -15
-9 -452 111 -473 130 -11 10 -18 27 -17 38 2 15 -3 22 -17 24 -18 2 -23 -11
-49 -110z"/>
<path d="M14715 11408 c-8 -24 -31 -238 -27 -243 13 -12 38 -3 47 18 8 17 20
23 51 25 66 5 308 -34 352 -57 82 -42 109 -117 52 -146 -72 -37 -63 -126 16
-141 63 -12 125 78 110 161 -5 24 -23 54 -53 86 l-46 49 41 0 c59 0 85 26 85
83 0 26 -7 57 -17 72 l-17 26 -26 -21 c-16 -13 -41 -20 -67 -20 -63 0 -414 48
-436 60 -12 6 -20 21 -20 35 0 18 -5 25 -20 25 -11 0 -23 -6 -25 -12z"/>
<path d="M15213 10708 c-20 -20 -37 -23 -155 -30 -204 -13 -285 -25 -331 -50
-61 -35 -82 -69 -82 -136 1 -70 24 -112 81 -151 l42 -27 -44 -12 c-31 -8 -48
-20 -55 -36 -15 -33 -3 -90 26 -123 l23 -28 21 27 c27 34 34 35 286 49 227 12
269 21 285 64 13 34 -2 95 -30 120 -19 17 -21 17 -44 -8 -29 -31 -66 -37 -246
-40 -112 -2 -140 1 -167 15 -73 41 -97 118 -47 157 33 26 49 28 272 41 209 11
237 20 248 75 7 39 -21 108 -46 113 -8 1 -25 -8 -37 -20z"/>
<path d="M15304 10010 c3 -22 3 -40 -1 -40 -34 0 -483 -104 -501 -116 -27 -18
-61 -87 -62 -125 0 -47 31 -132 60 -161 73 -72 183 7 124 90 -12 17 -25 22
-58 22 -49 0 -75 20 -52 39 14 12 515 125 522 118 2 -2 7 -21 12 -42 8 -40 19
-50 39 -37 8 5 9 19 3 47 -5 22 -7 41 -5 43 2 2 27 9 57 16 46 10 53 14 53 36
0 22 -6 26 -46 31 -69 10 -87 24 -100 74 -9 35 -16 45 -31 45 -18 0 -20 -4
-14 -40z"/>
<path d="M15314 9438 c-32 -15 -45 -51 -33 -86 14 -42 49 -55 104 -40 54 15
87 2 115 -44 27 -44 25 -70 -6 -108 -25 -29 -72 -60 -92 -60 -5 0 -27 30 -48
66 -112 191 -296 251 -401 131 -69 -79 -50 -215 42 -295 20 -18 43 -32 52 -32
14 0 13 -4 -5 -23 -38 -40 -22 -115 32 -151 33 -21 46 -20 46 2 0 35 47 63
219 131 95 38 181 77 193 88 79 72 76 228 -7 338 -55 71 -155 111 -211 83z
m-83 -232 c40 -27 102 -111 96 -130 -2 -5 -39 -23 -83 -38 -122 -44 -198 -28
-230 49 -49 116 99 197 217 119z"/>
<path d="M22521 9183 c-91 -48 -144 -145 -143 -264 0 -62 29 -131 62 -149 34
-18 81 -8 103 22 27 36 16 73 -29 100 -99 58 -72 192 40 191 24 -1 57 -8 73
-17 l30 -15 -20 -58 c-28 -81 -33 -186 -13 -255 28 -98 119 -161 210 -144 110
21 196 175 156 280 -9 25 -8 26 24 26 39 0 63 23 77 73 12 46 -4 92 -29 82
-46 -20 -66 -15 -234 65 -95 46 -191 85 -213 87 -30 4 -53 -2 -94 -24z m281
-200 c116 -61 154 -133 113 -213 -19 -36 -43 -50 -87 -50 -98 0 -162 107 -137
229 17 86 14 85 111 34z"/>
<path d="M21971 8734 c-42 -54 -13 -118 54 -118 67 0 96 64 54 118 -15 19 -30
26 -54 26 -24 0 -39 -7 -54 -26z"/>
<path d="M22177 8629 c-31 -18 -52 -74 -48 -131 1 -13 9 -15 39 -11 25 3 50
-1 70 -11 51 -27 351 -226 359 -239 4 -7 7 -27 8 -46 0 -19 6 -36 12 -38 7 -3
43 42 83 104 61 94 68 110 55 122 -13 13 -17 12 -34 -3 -13 -12 -28 -16 -44
-12 -13 3 -104 58 -202 122 -167 109 -246 154 -270 153 -5 0 -18 -4 -28 -10z"/>
<path d="M16070 8603 c0 -16 -6 -35 -13 -44 -17 -23 -484 -367 -524 -387 -30
-14 -34 -14 -51 1 -18 16 -52 14 -52 -3 0 -17 152 -211 163 -207 7 2 11 18 9
37 -1 21 4 40 15 53 10 10 134 104 275 209 260 191 308 233 308 270 0 30 -72
98 -104 98 -22 0 -26 -5 -26 -27z"/>
<path d="M21965 8295 c-131 -49 -201 -197 -161 -341 46 -159 187 -265 350
-263 107 1 192 50 240 138 47 88 48 246 1 246 -17 0 -20 -8 -20 -75 -2 -111
-46 -176 -135 -200 -77 -21 -162 12 -254 99 -95 90 -126 181 -90 258 34 71 89
79 160 22 45 -35 67 -37 99 -4 33 32 31 57 -4 97 -25 28 -35 32 -87 34 -35 2
-76 -3 -99 -11z"/>
<path d="M16114 8126 c-35 -16 -64 -51 -64 -79 0 -26 45 -67 73 -67 13 0 38
11 57 25 48 36 102 34 141 -4 46 -46 39 -98 -23 -167 l-20 -22 -63 48 c-81 61
-157 90 -238 90 -74 0 -119 -20 -160 -72 -43 -54 -47 -112 -13 -183 40 -81
117 -135 194 -135 19 0 20 -3 11 -24 -24 -53 22 -111 97 -123 31 -5 35 -3 34
13 -6 56 2 68 136 198 144 138 173 181 174 252 0 53 -41 133 -92 179 -74 68
-182 99 -244 71z m34 -300 c26 -13 55 -33 65 -44 17 -19 17 -21 -40 -72 -63
-57 -123 -89 -164 -90 -38 0 -92 40 -105 79 -15 45 -7 77 28 111 54 55 129 60
216 16z"/>
<path d="M21434 7791 c-69 -31 -110 -104 -102 -181 l3 -39 -25 23 c-55 51
-112 38 -148 -35 -23 -47 -21 -59 10 -59 39 0 75 -34 198 -192 69 -88 129
-167 134 -175 5 -10 4 -29 -4 -51 -23 -65 2 -60 107 23 109 85 123 112 56 107
l-42 -4 -86 109 c-117 145 -145 195 -145 256 0 40 5 53 29 78 58 58 95 33 249
-160 117 -149 121 -158 97 -213 -5 -12 -2 -20 9 -24 11 -4 48 19 111 70 99 80
120 114 64 102 -17 -3 -39 -1 -50 5 -11 5 -70 74 -132 152 -176 221 -230 255
-333 208z"/>
<path d="M17011 7424 c-67 -18 -104 -40 -158 -96 -131 -134 -136 -349 -12
-470 74 -73 163 -93 270 -62 61 18 84 35 76 57 -5 13 -13 13 -58 1 -76 -20
-119 -17 -169 9 -73 38 -109 140 -84 234 6 21 7 20 52 -14 124 -95 266 -109
354 -35 118 99 72 293 -87 363 -59 26 -122 31 -184 13z m220 -113 c36 -36 38
-75 7 -121 -54 -80 -171 -102 -279 -54 -67 30 -67 34 4 111 56 61 118 92 185
93 46 0 58 -4 83 -29z"/>
<path d="M20850 7391 c-126 -41 -198 -133 -208 -262 -9 -135 48 -254 159 -328
110 -74 224 -76 326 -8 56 38 109 119 119 183 13 88 -23 96 -51 11 -47 -146
-169 -195 -289 -115 -26 16 -51 38 -56 48 -8 15 -4 19 27 25 88 16 200 105
229 181 35 92 -4 202 -87 245 -46 23 -130 33 -169 20z m93 -82 c34 -26 51 -84
43 -143 -9 -57 -55 -119 -121 -164 l-49 -33 -20 38 c-13 26 -21 65 -24 124 -4
72 -1 92 17 127 11 22 31 48 43 56 31 22 80 20 111 -5z"/>
<path d="M20195 7340 c-42 -46 -7 -123 54 -123 64 0 96 78 51 123 -26 26 -81
26 -105 0z"/>
<path d="M17526 7201 c-3 -5 5 -29 19 -54 20 -34 91 -308 82 -313 -1 0 -41
-32 -88 -71 -101 -84 -146 -113 -175 -113 -19 0 -41 -26 -31 -36 7 -7 177 -64
191 -64 21 0 21 28 0 51 -12 13 -13 22 -5 36 11 21 120 118 125 112 8 -8 26
-112 26 -145 0 -30 -4 -37 -29 -45 -16 -6 -32 -17 -35 -25 -6 -16 1 -20 147
-70 110 -37 126 -32 88 30 -17 26 -80 268 -81 307 0 7 165 142 210 172 13 9
35 17 47 17 12 0 27 9 33 20 9 17 7 22 -17 31 -80 32 -167 58 -174 53 -14 -8
-11 -25 7 -45 9 -11 13 -26 9 -37 -9 -30 -128 -125 -136 -109 -13 24 -31 146
-24 166 4 13 15 21 30 21 23 0 42 28 28 40 -10 9 -216 80 -231 80 -6 0 -13 -4
-16 -9z"/>
<path d="M20290 7143 c-21 -8 -80 -65 -80 -78 0 -6 13 -16 29 -22 16 -6 37
-25 45 -42 24 -45 146 -400 146 -422 0 -10 -9 -24 -20 -31 -25 -16 -27 -48 -2
-47 9 0 64 17 122 38 83 30 105 42 105 57 0 13 -6 18 -21 17 -38 -4 -60 38
-132 244 -77 220 -103 277 -127 287 -19 7 -44 7 -65 -1z"/>
<path d="M19899 7020 c-40 -21 -64 -53 -83 -108 l-13 -37 -12 36 c-6 20 -20
44 -31 54 -28 25 -94 15 -131 -21 -34 -33 -36 -41 -9 -49 36 -11 50 -49 90
-241 46 -217 50 -270 20 -279 -18 -6 -27 -34 -15 -47 3 -2 60 7 127 21 108 23
123 29 123 46 0 14 -8 21 -28 23 -15 2 -32 12 -37 23 -23 42 -72 304 -67 355
11 115 82 166 137 100 7 -9 23 -16 37 -16 58 0 90 46 72 100 -21 58 -109 78
-180 40z"/>
<path d="M18222 6989 c-39 -12 -50 -33 -28 -54 24 -25 20 -76 -29 -413 -55
-374 -57 -381 -96 -389 -19 -4 -29 -12 -29 -23 0 -20 9 -23 135 -40 44 -6 88
-14 98 -16 31 -10 33 26 1 51 l-28 23 13 103 c7 57 15 114 18 127 l6 23 26
-25 c100 -96 270 -64 360 68 105 153 90 376 -32 481 -57 49 -134 71 -195 55
-26 -6 -57 -18 -69 -26 -21 -13 -23 -13 -23 4 0 43 -66 70 -128 51z m327 -115
c82 -69 78 -306 -8 -434 -34 -51 -63 -69 -112 -70 -91 -1 -132 102 -109 270
23 166 80 260 158 260 29 0 49 -7 71 -26z"/>
<path d="M19132 6913 c-54 -19 -131 -93 -162 -158 -21 -43 -25 -64 -25 -150 0
-87 3 -107 26 -155 55 -117 154 -185 269 -184 79 1 124 19 185 75 58 54 80 92
61 108 -9 8 -20 3 -42 -21 -16 -17 -49 -44 -73 -59 -105 -67 -231 -16 -276
111 -14 41 -14 41 8 34 44 -15 160 -7 219 15 181 69 198 287 29 374 -63 31
-147 36 -219 10z m169 -53 c32 -18 52 -67 44 -115 -13 -91 -106 -167 -217
-178 l-48 -5 0 52 c0 69 14 115 53 172 47 70 117 101 168 74z"/>
</g>
</svg>
